<?xml version="1.0" encoding="utf-8"?>
<!DOCTYPE svg PUBLIC "-//W3C//DTD SVG 1.1//EN" "http://www.w3.org/Graphics/SVG/1.1/DTD/svg11.dtd">
<svg version="1.1" id="Layer_1" xmlns="http://www.w3.org/2000/svg" xmlns:xlink="http://www.w3.org/1999/xlink" x="0px" y="0px"
	 width="363.229px" height="315.248px" viewBox="238.684 139.067 363.229 315.248"
	 enable-background="new 238.684 139.067 363.229 315.248" xml:space="preserve">
<g>
	<path fill="#1D1D1B" d="M436.413,351.945c0,2.453,1.024,3.039,2.013,3.039c1.137,0,1.794-0.844,2.453-0.844
		c0.734,0,1.246,1.027,1.246,1.687c0,2.416-4.176,4.54-7.875,4.54c-1.867,0-6.555-0.805-6.555-6.629v-7.543
		c0-0.66,0-0.915-0.181-1.024c-0.187-0.109-0.586-0.038-1.43-0.038c-0.952,0-1.429,0.038-1.612-0.146
		c-0.255-0.257-0.184-0.624-0.184-1.465c0-0.515-0.109-0.917,0.331-1.21l8.349-5.31c0.844-0.512,0.805-0.402,1.905-0.402
		c1.466,0,1.539-0.147,1.539,1.539c0,1.134-0.073,2.27,0.109,2.708c0.11,0.293,0.367,0.293,1.317,0.293h2.565
		c1.572,0,1.572,0.109,1.572,1.758c0,2.089-0.255,2.234-1.685,2.234h-2.527c-1.281,0-1.353,0.038-1.353,1.355V351.945z"/>
	<path fill="#1D1D1B" d="M466.325,354.398c0,3.113,1.794,2.344,1.794,3.772c0,2.125-4.688,2.087-6.043,2.087
		c-1.134,0-5.566,0-5.566-1.867c0-1.062,1.026-1.024,1.319-2.895c0.219-1.172,0.255-2.453,0.255-3.661
		c0-1.831-0.036-5.273-2.635-5.273c-2.234,0-2.162,1.903-2.162,3.552v4.249c0,3.04,1.465,2.418,1.465,3.735
		c0,2.125-4.176,2.16-5.566,2.16c-5.236,0-6.446-1.098-6.446-2.234c0-1.465,1.43-0.805,2.051-3.185
		c0.441-1.722,0.441-6.558,0.441-8.57c0-1.648-0.11-3.332-0.148-4.98c-0.071-2.601-2.27-1.684-2.27-3.406
		c0-2.93,9.521-3.699,9.559-3.699c1.098,0,1.172,0.331,1.172,1.392l-0.219,6.96c-0.038,0.695-0.074,1.867,0.876,1.867
		c1.101,0,1.577-3.261,5.679-3.261c6.738,0,6.262,6.336,6.298,7.362L466.325,354.398z"/>
	<path fill="#1D1D1B" d="M478.142,351.432c-0.403,0-0.989-0.109-0.989,0.513c0,1.831,2.38,3.367,4.102,3.367
		c2.747,0,4.103-1.646,4.871-1.646c0.77,0,1.427,1.134,1.427,1.829c0,2.82-5.164,4.871-8.458,4.871
		c-6.593,0-9.997-4.759-9.997-9.484c0-5.641,4.798-9.742,10.29-9.742c6.227,0,8.971,4.797,8.971,7.546
		c0,2.415-1.096,2.746-2.268,2.746H478.142z M481.327,346.819c0-1.32-0.806-2.344-2.158-2.344c-1.21,0-2.198,1.243-2.198,2.415
		c0,1.319,1.245,1.026,2.198,1.026C480.155,347.916,481.327,348.136,481.327,346.819z"/>
</g>
<path fill-rule="evenodd" clip-rule="evenodd" fill="#E5332A" d="M484.27,319.59c52.415-32.77,100.973-67.094,100.973-123.44
	c0-31.244-25.329-56.576-56.575-56.576c-17.824,0-33.712,8.251-44.083,21.132h-0.631c-10.368-12.881-26.259-21.132-44.082-21.132
	c-31.245,0-56.575,25.332-56.575,56.576C383.297,252.496,431.854,286.82,484.27,319.59z"/>
<path fill="#1D1D1B" d="M264.333,213.719c0-30.387-2.393-37.326-5.024-40.676c-5.503-6.938-14.835-7.656-14.835-16.748
	c0-17.228,48.812-17.228,53.597-17.228c14.356,0,43.787,0.479,43.787,16.749c0,8.614-9.093,8.135-14.597,14.357
	c-4.546,5.263-4.785,26.797-4.785,43.546v23.688c0,42.591,2.872,41.634,7.657,44.506c5.982,3.587,11.725,4.783,11.725,12.2
	c0,7.179-2.155,17.945-54.555,17.945c-10.049,0-40.197-0.238-40.197-15.552c0-7.658,8.134-8.854,11.963-13.398
	c2.871-3.349,5.264-12.205,5.264-45.702V213.719z"/>
<path fill="#1D1D1B" d="M334.649,406.249c-0.825-1.816-2.147-6.938-4.789-6.938c-3.139,0-4.294,4.295-8.589,14.866l-10.076,24.941
	c-3.469,8.589-5.121,14.701-15.856,14.701c-9.25,0-11.728-5.781-14.7-13.38l-30.722-78.456c-4.625-11.893-11.232-5.78-11.232-15.856
	c0-11.397,22.298-11.729,29.896-11.729c24.116,0,28.245,3.8,28.245,10.571c0,4.957-3.799,5.616-3.799,10.737
	c0,4.79,5.121,16.848,5.781,18.829c0.827,2.642,4.46,14.204,8.26,14.204c4.293,0,7.763-11.891,8.588-14.37
	c0.495-0.991,2.147-5.286,2.147-6.441c0-1.486-3.468-11.726-8.424-14.534c-3.304-1.653-6.111-3.964-6.111-8.094
	c0-0.991-2.313-10.902,32.208-10.902c32.043,0,31.383,7.435,31.383,10.242c0,5.45-7.433,6.937-7.433,11.066
	c0,4.459,5.615,14.699,7.267,18.334c1.157,2.642,4.79,12.884,8.753,12.884c5.617,0,12.719-28.08,12.719-30.394
	c0-7.101-10.735-3.468-10.735-12.553c0-10.075,16.847-9.58,23.619-9.58c6.771,0,19.16,0.827,19.16,10.076
	c0,8.094-6.938,5.947-11.397,17.509l-28.409,74.326c-3.47,8.92-7.268,17.51-16.683,17.51c-8.258,0-10.901-4.462-13.874-11.397
	L334.649,406.249z"/>
<path fill="#1D1D1B" d="M446.662,414.013c-1.816,0-4.461-0.496-4.461,2.312c0,8.258,10.738,15.194,18.5,15.194
	c12.389,0,18.501-7.432,21.969-7.432c3.469,0,6.441,5.121,6.441,8.258c0,12.72-23.291,21.969-38.154,21.969
	c-29.731,0-45.092-21.473-45.092-42.779c0-25.437,21.637-43.938,46.412-43.938c28.081,0,40.47,21.638,40.47,34.026
	c0,10.902-4.955,12.389-10.242,12.389H446.662z M461.033,393.201c0-5.947-3.635-10.571-9.747-10.571c-5.45,0-9.909,5.614-9.909,10.9
	c0,5.947,5.617,4.625,9.909,4.625C455.745,398.156,461.033,399.147,461.033,393.201z"/>
<path fill="#1D1D1B" d="M543.28,375.197c0,0.826-0.166,2.644,1.155,2.644c0.827,0,3.469-2.644,7.763-5.121
	c4.295-2.642,10.076-5.121,17.343-5.121c17.51,0,32.373,14.701,32.373,36.503c0,28.245-21.142,50.214-49.549,50.214
	c-20.813,0-30.561-10.737-33.201-10.737c-2.642,0-5.286,2.479-10.735,2.479c-2.313,0-4.955-0.662-4.955-3.304
	c0-2.645,3.302-7.93,3.302-29.4v-43.938c0-9.58-12.386-5.285-12.386-14.698c0-11.069,32.041-18.501,45.752-18.501
	c4.459,0,4.294,3.469,4.13,7.104L543.28,375.197z M551.703,393.034c-7.268,0-8.094,5.948-8.094,11.562
	c0,32.044,1.817,34.688,8.423,34.688c10.904,0,12.719-12.388,12.719-20.812C564.751,410.708,562.602,393.034,551.703,393.034z"/>
</svg>
